<?xml version="1.0" standalone="no"?><!DOCTYPE svg PUBLIC "-//W3C//DTD SVG 1.1//EN" "http://www.w3.org/Graphics/SVG/1.1/DTD/svg11.dtd"><svg t="1509983795986" class="icon" style="" viewBox="0 0 1024 1024" version="1.1" xmlns="http://www.w3.org/2000/svg" p-id="7069" xmlns:xlink="http://www.w3.org/1999/xlink" width="512" height="512"><defs><style type="text/css"></style></defs><path d="M511.913993 511.913993m-511.913993 0a511.913993 511.913993 0 1 0 1023.827986 0 511.913993 511.913993 0 1 0-1023.827986 0Z" fill="#D80027" p-id="7070"></path><path d="M352.284898 312.205611l44.207627 136.063161h142.943726l-115.593483 84.1149 44.207627 136.063162-115.765497-84.114901-115.765496 84.114901 44.37964-136.063162L165.133546 448.268772h142.943726zM679.111708 793.501092l-33.886779-41.455401-49.884092 19.265581 28.89837-44.895683-33.714766-41.799429 51.776248 13.761129 29.242399-45.067697 2.752225 53.668402 51.948262 13.761129-50.228121 19.265581zM746.197211 671.543088l15.997313-51.088191-43.691584-31.134554 53.496388-0.688057 15.825298-51.260205 17.373425 50.744163 53.668403-0.516042-43.003528 31.994624 17.201411 50.744163-43.863598-30.96254zM836.848648 376.366874l-23.565933 48.163951 38.359146 37.499076-52.980346-7.568621-23.565933 47.991937-9.288762-52.808332-53.15236-7.568621 47.647909-25.11406-9.288762-52.980346 38.53116 37.499076zM680.487821 230.326894l-3.956324 53.496388 49.712078 20.125651-52.120276 12.901059-3.78431 53.496388-28.210314-45.583739-52.29229 12.901058 34.574836-41.111372-28.382328-45.411726 49.884092 20.297665z" fill="#FFDA44" p-id="7071"></path></svg>